<svg width="170" height="49" viewBox="0 0 170 49" fill="none" xmlns="http://www.w3.org/2000/svg">
<path d="M13.04 14.42L30.5 24.5201L47.96 14.42M30.5 44.66V24.5M48.5 32.5V16.5C48.4993 15.7986 48.3141 15.1097 47.9631 14.5024C47.612 13.8951 47.1075 13.3908 46.5 13.04L32.5 5.04005C31.8919 4.68898 31.2021 4.50415 30.5 4.50415C29.7979 4.50415 29.1081 4.68898 28.5 5.04005L14.5 13.04C13.8925 13.3908 13.388 13.8951 13.0369 14.5024C12.6859 15.1097 12.5007 15.7986 12.5 16.5V32.5C12.5007 33.2015 12.6859 33.8904 13.0369 34.4977C13.388 35.105 13.8925 35.6093 14.5 35.96L28.5 43.96C29.1081 44.3111 29.7979 44.4959 30.5 44.4959C31.2021 44.4959 31.8919 44.3111 32.5 43.96L46.5 35.96C47.1075 35.6093 47.612 35.105 47.9631 34.4977C48.3141 33.8904 48.4993 33.2015 48.5 32.5Z" stroke="white" stroke-width="4" stroke-linecap="round" stroke-linejoin="round"/>
<path d="M75.0125 13.5375H80.1645V30.5H77.278V15.4695L77.347 15.4925L73.7015 30.5H69.6535L65.962 15.481L66.031 15.4465V30.5H63.1445V13.5375H68.2965L71.735 28.844H71.5395L75.0125 13.5375ZM89.4407 30.7415C88.1527 30.7415 87.018 30.4732 86.0367 29.9365C85.0554 29.3922 84.2849 28.6408 83.7252 27.6825C83.1732 26.7242 82.8972 25.6278 82.8972 24.3935C82.8972 23.1515 83.1732 22.059 83.7252 21.116C84.2849 20.1653 85.0554 19.4217 86.0367 18.885C87.018 18.3483 88.1527 18.08 89.4407 18.08C90.7287 18.08 91.8634 18.3483 92.8447 18.885C93.826 19.4217 94.5927 20.1653 95.1447 21.116C95.7044 22.059 95.9842 23.1515 95.9842 24.3935C95.9842 25.6278 95.7044 26.7242 95.1447 27.6825C94.5927 28.6408 93.826 29.3922 92.8447 29.9365C91.8634 30.4732 90.7287 30.7415 89.4407 30.7415ZM89.4407 28.269C90.1384 28.269 90.7479 28.108 91.2692 27.786C91.7905 27.464 92.1969 27.0155 92.4882 26.4405C92.7795 25.8578 92.9252 25.1755 92.9252 24.3935C92.9252 23.6115 92.7795 22.9368 92.4882 22.3695C92.1969 21.7945 91.7905 21.3498 91.2692 21.0355C90.7479 20.7212 90.1384 20.564 89.4407 20.564C88.7507 20.564 88.1412 20.7212 87.6122 21.0355C87.0909 21.3498 86.6845 21.7945 86.3932 22.3695C86.1019 22.9368 85.9562 23.6115 85.9562 24.3935C85.9562 25.1755 86.1019 25.8578 86.3932 26.4405C86.6845 27.0155 87.0909 27.464 87.6122 27.786C88.1412 28.108 88.7507 28.269 89.4407 28.269ZM104.639 30.753C103.351 30.753 102.213 30.4885 101.224 29.9595C100.235 29.4305 99.4602 28.6868 98.9005 27.7285C98.3408 26.7702 98.061 25.647 98.061 24.359C98.061 23.0787 98.3408 21.967 98.9005 21.024C99.4602 20.081 100.235 19.3565 101.224 18.8505C102.213 18.3368 103.351 18.08 104.639 18.08C105.605 18.08 106.46 18.2218 107.204 18.5055C107.947 18.7892 108.572 19.1687 109.078 19.644C109.592 20.1117 109.983 20.6292 110.251 21.1965C110.519 21.7562 110.654 22.3158 110.654 22.8755C110.654 22.8908 110.654 22.9062 110.654 22.9215C110.654 22.9368 110.654 22.9522 110.654 22.9675H107.652C107.652 22.9292 107.648 22.887 107.641 22.841C107.633 22.795 107.625 22.749 107.618 22.703C107.556 22.312 107.399 21.9593 107.146 21.645C106.893 21.323 106.556 21.0662 106.134 20.8745C105.712 20.6828 105.203 20.587 104.605 20.587C103.968 20.587 103.386 20.7288 102.857 21.0125C102.335 21.2885 101.917 21.7063 101.603 22.266C101.296 22.8257 101.143 23.5233 101.143 24.359C101.143 25.187 101.296 25.8923 101.603 26.475C101.91 27.05 102.324 27.4908 102.845 27.7975C103.374 28.0965 103.961 28.246 104.605 28.246C105.287 28.246 105.843 28.1425 106.272 27.9355C106.709 27.7208 107.039 27.4372 107.261 27.0845C107.483 26.7242 107.61 26.3332 107.641 25.9115H110.654C110.654 26.4788 110.523 27.05 110.263 27.625C110.002 28.1923 109.619 28.7137 109.113 29.189C108.607 29.6643 107.978 30.0438 107.227 30.3275C106.483 30.6112 105.62 30.753 104.639 30.753ZM113.271 30.5V12.5255H116.146V23.0595L115.491 22.7375L120.539 18.287H124.3L118.32 23.6115L118.998 22.3695L124.242 30.5H121.045L117.02 23.9795L117.756 24.106L115.801 25.854L116.146 24.5085V30.5H113.271ZM126.042 30.5V18.287H129.032V30.5H126.042ZM127.548 16.033C127.057 16.033 126.628 15.9027 126.26 15.642C125.9 15.3737 125.72 15.0018 125.72 14.5265C125.72 14.0588 125.9 13.6947 126.26 13.434C126.628 13.1733 127.057 13.043 127.548 13.043C128.031 13.043 128.453 13.1733 128.813 13.434C129.173 13.6947 129.354 14.0588 129.354 14.5265C129.354 15.0018 129.173 15.3737 128.813 15.642C128.453 15.9027 128.031 16.033 127.548 16.033ZM140.78 30.5V25.0835C140.78 24.7768 140.78 24.5085 140.78 24.2785C140.78 24.0408 140.78 23.8262 140.78 23.6345C140.78 23.0825 140.7 22.588 140.539 22.151C140.385 21.7063 140.117 21.3575 139.734 21.1045C139.358 20.8515 138.837 20.725 138.17 20.725C137.587 20.725 137.07 20.8668 136.617 21.1505C136.165 21.4265 135.808 21.8098 135.548 22.3005C135.295 22.7835 135.168 23.3432 135.168 23.9795L134.145 23.347C134.145 22.3273 134.375 21.4227 134.835 20.633C135.302 19.8357 135.927 19.2108 136.709 18.7585C137.491 18.3062 138.358 18.08 139.308 18.08C140.29 18.08 141.114 18.2717 141.781 18.655C142.455 19.0383 142.961 19.5827 143.299 20.288C143.644 20.9933 143.816 21.8213 143.816 22.772C143.816 23.14 143.816 23.554 143.816 24.014C143.816 24.474 143.816 24.9263 143.816 25.371V30.5H140.78ZM132.144 30.5V18.287H135.168V30.5H132.144ZM152.156 30.73C151.719 30.73 151.274 30.6878 150.822 30.6035C150.37 30.5192 149.956 30.362 149.58 30.132C149.204 29.902 148.901 29.5647 148.671 29.12C148.441 28.6753 148.326 28.0888 148.326 27.3605C148.326 27.1918 148.326 27.0232 148.326 26.8545C148.326 26.6782 148.326 26.498 148.326 26.314V20.702H145.44V18.287H146.613C147.012 18.287 147.326 18.2717 147.556 18.241C147.786 18.2027 147.955 18.1183 148.062 17.988C148.169 17.8577 148.238 17.6545 148.269 17.3785C148.307 17.0948 148.326 16.7038 148.326 16.2055V14.262H151.362V18.287H154.996V20.702H151.362V25.601C151.362 25.7467 151.362 25.8923 151.362 26.038C151.362 26.176 151.362 26.3102 151.362 26.4405C151.362 27.0078 151.431 27.464 151.569 27.809C151.707 28.154 152.033 28.3265 152.547 28.3265C152.792 28.3265 153.022 28.3035 153.237 28.2575C153.459 28.2115 153.624 28.1655 153.731 28.1195V30.4885C153.586 30.5422 153.375 30.5958 153.099 30.6495C152.823 30.7032 152.509 30.73 152.156 30.73ZM163.061 30.7415C161.773 30.7415 160.639 30.4732 159.657 29.9365C158.676 29.3922 157.906 28.6408 157.346 27.6825C156.794 26.7242 156.518 25.6278 156.518 24.3935C156.518 23.1515 156.794 22.059 157.346 21.116C157.906 20.1653 158.676 19.4217 159.657 18.885C160.639 18.3483 161.773 18.08 163.061 18.08C164.349 18.08 165.484 18.3483 166.465 18.885C167.447 19.4217 168.213 20.1653 168.765 21.116C169.325 22.059 169.605 23.1515 169.605 24.3935C169.605 25.6278 169.325 26.7242 168.765 27.6825C168.213 28.6408 167.447 29.3922 166.465 29.9365C165.484 30.4732 164.349 30.7415 163.061 30.7415ZM163.061 28.269C163.759 28.269 164.369 28.108 164.89 27.786C165.411 27.464 165.818 27.0155 166.109 26.4405C166.4 25.8578 166.546 25.1755 166.546 24.3935C166.546 23.6115 166.4 22.9368 166.109 22.3695C165.818 21.7945 165.411 21.3498 164.89 21.0355C164.369 20.7212 163.759 20.564 163.061 20.564C162.371 20.564 161.762 20.7212 161.233 21.0355C160.712 21.3498 160.305 21.7945 160.014 22.3695C159.723 22.9368 159.577 23.6115 159.577 24.3935C159.577 25.1755 159.723 25.8578 160.014 26.4405C160.305 27.0155 160.712 27.464 161.233 27.786C161.762 28.108 162.371 28.269 163.061 28.269Z" fill="white"/>
</svg>
